<svg width="54" height="80" viewBox="0 0 54 80" fill="none" xmlns="http://www.w3.org/2000/svg">
<path d="M50.0933 30.57L23.4266 3.90334C18.2333 -1.29666 9.76663 -1.29666 4.57329 3.90334C2.05329 6.41667 0.666626 9.77001 0.666626 13.33C0.666626 16.89 2.05329 20.2433 4.57329 22.7567L21.8133 39.9967L4.57329 57.2367C2.05329 59.7567 0.666626 63.1033 0.666626 66.6633C0.666626 70.2233 2.05329 73.57 4.57329 76.09C7.09329 78.61 10.44 79.9967 14 79.9967C17.56 79.9967 20.9066 78.61 23.4266 76.09L50.0933 49.4233C52.6133 46.91 54 43.5567 54 39.9967C54 36.4367 52.6133 33.0833 50.0933 30.57ZM45.38 44.71L18.7133 71.3767C16.1866 73.8967 11.8133 73.8967 9.28663 71.3767C6.68663 68.7767 6.68663 64.55 9.28663 61.95L31.24 39.9967L9.28663 18.0433C8.02663 16.7833 7.33329 15.11 7.33329 13.33C7.33329 11.55 8.02663 9.87667 9.28663 8.61667C10.5866 7.31667 12.2933 6.66334 14 6.66334C15.7066 6.66334 17.4133 7.31668 18.7133 8.61001L45.38 35.2767C46.64 36.5433 47.3333 38.2167 47.3333 39.9967C47.3333 41.7767 46.64 43.45 45.38 44.71Z" fill="#F4A261"/>
</svg>
